<?xml version="1.0" encoding="utf-8"?>
<!-- Generator: Adobe Illustrator 16.0.0, SVG Export Plug-In . SVG Version: 6.00 Build 0)  -->
<!DOCTYPE svg PUBLIC "-//W3C//DTD SVG 1.1//EN" "http://www.w3.org/Graphics/SVG/1.1/DTD/svg11.dtd">
<svg version="1.1" id="Layer_1" xmlns="http://www.w3.org/2000/svg" xmlns:xlink="http://www.w3.org/1999/xlink" x="0px" y="0px"
	 width="496.557px" height="373.013px" viewBox="0 0 496.557 373.013" enable-background="new 0 0 496.557 373.013"
	 xml:space="preserve">
<g>
	<path fill="#489AFF" d="M417.658,310.332c19.732-12.061,25.951-37.833,13.891-57.566c-2.691-4.401-6.092-8.091-9.928-11.096
		c4.993-7.069,10.719-13.9,17.219-20.393c3.012-3.01,6.071-5.85,9.163-8.568c1.237,1.043,2.45,2.121,3.63,3.246l10.286-6.285
		c5.26-3.217,12.133-1.559,15.35,3.704l10.191,16.674c3.216,5.263,1.556,12.133-3.704,15.349l-10.286,6.286
		c2.31,7.814,3.386,15.822,3.293,23.769l11.626,3.244c5.939,1.657,9.412,7.816,7.754,13.756l-5.252,18.824
		c-1.658,5.94-7.817,9.41-13.757,7.755l-11.612-3.241c-3.082,5.228-6.776,10.14-11.054,14.628l6.288,10.283
		c3.217,5.263,1.557,12.136-3.704,15.353l-16.674,10.191c-5.263,3.213-12.136,1.556-15.352-3.707l-6.286-10.283
		c-6.021,1.779-12.158,2.811-18.294,3.153c-3.505-12.559-5.063-25.695-4.593-38.974C403.299,316.436,410.84,314.5,417.658,310.332z"
		/>
	<g>
		<g>
			<path fill="#E3EAFF" d="M388.518,358.912H29.086c-9.753,0-17.66-7.906-17.66-17.659V96.092c0-9.753,7.906-17.659,17.66-17.659
				h359.432c9.753,0,17.659,7.906,17.659,17.659v245.16C406.177,351.005,398.271,358.912,388.518,358.912z"/>
			<path fill="#6DB8FF" d="M386.986,355.223H30.617c-7.729,0-13.997-6.269-13.997-13.998V96.12c0-7.73,6.267-13.996,13.997-13.996
				h356.369c7.729,0,13.995,6.266,13.995,13.996v245.105C400.981,348.955,394.716,355.223,386.986,355.223z"/>
			<path fill="#2F6DFF" d="M375.736,331.124H41.866c-4.765,0-8.625-3.861-8.625-8.624v-218.9c0-4.764,3.861-8.625,8.625-8.625
				h333.87c4.765,0,8.626,3.861,8.626,8.625v218.9C384.362,327.262,380.501,331.124,375.736,331.124z"/>
			<path fill="#E3EAFF" d="M1.842,344.369C0.705,346.465,0,348.83,0,351.381c0,8.176,6.627,14.802,14.803,14.802h387.998
				c8.176,0,14.802-6.626,14.802-14.802c0-2.552-0.704-4.916-1.842-7.013H1.842z"/>
		</g>
		<path fill="#C8D6F2" d="M1.842,358.394c2.504,4.618,7.337,7.789,12.961,7.789h387.998c5.624,0,10.456-3.171,12.96-7.789H1.842z"/>
	</g>
	<path opacity="0.2" fill="#424261" d="M388.518,78.433H125.104v176.032c0,3.894,3.157,7.048,7.05,7.048h274.023V96.092
		C406.177,86.339,398.271,78.433,388.518,78.433z"/>
	<path opacity="0.21" fill="#E3EAFF" d="M436.104,253.584H141.845c-3.894,0-7.05-3.154-7.05-7.048V65.046
		c0-3.893,3.156-7.048,7.05-7.048h294.259c3.894,0,7.051,3.155,7.051,7.048v181.49C443.154,250.43,439.997,253.584,436.104,253.584z
		"/>
	<path fill="#F9FBFC" d="M448.438,240.371H154.18c-3.894,0-7.05-3.156-7.05-7.05V51.83c0-3.892,3.156-7.047,7.05-7.047h294.259
		c3.894,0,7.048,3.155,7.048,7.047v181.491C455.486,237.214,452.332,240.371,448.438,240.371z"/>
	<path opacity="0.2" fill="#424261" d="M90.195,178.258H58.919c-2.435,0-4.406-1.972-4.406-4.406v-33.038
		c0-2.433,1.972-4.405,4.406-4.405h31.276c2.432,0,4.404,1.972,4.404,4.405v33.038C94.599,176.287,92.627,178.258,90.195,178.258z"
		/>
	<path fill="#6DB8FF" d="M87.883,239.048H56.606c-2.435,0-4.406-1.974-4.406-4.406v-33.039c0-2.432,1.971-4.403,4.406-4.403h31.277
		c2.432,0,4.403,1.972,4.403,4.403v33.039C92.286,237.075,90.314,239.048,87.883,239.048z"/>
	<path fill="#6DB8FF" d="M87.883,298.517H56.606c-2.435,0-4.406-1.974-4.406-4.406v-33.039c0-2.432,1.971-4.403,4.406-4.403h31.277
		c2.432,0,4.403,1.972,4.403,4.403v33.039C92.286,296.543,90.314,298.517,87.883,298.517z"/>
	<g>
		<path fill="#9570EE" d="M81.002,272.984c0-5.263-4.267-9.529-9.529-9.529s-9.529,4.267-9.529,9.529c0,0-1.342,10.092,9.529,18.117
			C82.344,283.076,81.002,272.984,81.002,272.984z"/>
		<path fill="#F9FBFC" d="M72.033,279.862c-4.252,0.336-7.774-3.187-7.441-7.438c0.264-3.346,2.975-6.057,6.321-6.32
			c4.252-0.334,7.774,3.189,7.438,7.44C78.087,276.89,75.378,279.598,72.033,279.862z"/>
	</g>
	<g>
		<g>
			<g>
				<path fill="#9570EE" d="M84.467,217.57c0,7.282-5.902,13.185-13.181,13.185c-7.282,0-13.184-5.902-13.184-13.185
					c0-7.278,5.902-13.181,13.184-13.181C78.565,204.389,84.467,210.292,84.467,217.57z"/>
				<path fill="#F9FBFC" d="M81.916,217.57c0,5.873-4.76,10.633-10.629,10.633c-5.873,0-10.632-4.76-10.632-10.633
					c0-5.869,4.76-10.629,10.632-10.629C77.156,206.941,81.916,211.701,81.916,217.57z"/>
				<path fill="#BB87EE" d="M71.286,206.941c4.817,0,8.884,3.203,10.191,7.6c0.052,0.182,0.217,0.309,0.406,0.309l0,0
					c0.284,0,0.49-0.271,0.411-0.543c-1.406-4.749-5.803-8.217-11.008-8.217c-5.208,0-9.602,3.468-11.008,8.217
					c-0.082,0.271,0.125,0.543,0.408,0.543l0,0c0.189,0,0.354-0.127,0.409-0.309C62.399,210.144,66.467,206.941,71.286,206.941z"/>
				<path fill="#7F57EE" d="M83.078,217.912c-0.632,0-1.178,0.46-1.26,1.088c-0.699,5.195-5.148,9.203-10.532,9.203
					c-5.387,0-9.836-4.008-10.533-9.203c-0.084-0.628-0.63-1.088-1.262-1.088l0,0c-0.767,0-1.369,0.674-1.267,1.434
					c0.866,6.439,6.383,11.409,13.062,11.409c6.676,0,12.193-4.97,13.059-11.409C84.447,218.585,83.845,217.912,83.078,217.912
					L83.078,217.912z"/>
				<path fill="#F9FBFC" d="M81.916,217.57c0,5.873-4.76,10.633-10.629,10.633c-5.873,0-10.632-4.76-10.632-10.633
					c0-5.869,4.76-10.629,10.632-10.629C77.156,206.941,81.916,211.701,81.916,217.57z"/>
				<path fill="#9570EE" d="M81.646,221c-0.179,0-0.338,0.114-0.4,0.284c-1.506,4.037-5.397,6.918-9.96,6.918
					c-4.565,0-8.457-2.881-9.963-6.918c-0.062-0.17-0.221-0.284-0.4-0.284l0,0c-0.296,0-0.505,0.296-0.401,0.575
					c1.625,4.366,5.83,7.476,10.764,7.476c4.931,0,9.138-3.109,10.764-7.476C82.152,221.296,81.943,221,81.646,221L81.646,221z"/>
			</g>
			<path fill="#9570EE" d="M71.256,218.506L71.256,218.506c-0.281,0-0.51-0.229-0.51-0.511v-7.485c0-0.281,0.229-0.508,0.51-0.508
				l0,0c0.281,0,0.511,0.227,0.511,0.508v7.485C71.767,218.277,71.537,218.506,71.256,218.506z"/>
			<path fill="#9570EE" d="M70.888,217.712L70.888,217.712c0.182-0.215,0.505-0.242,0.719-0.061l4.618,3.901
				c0.214,0.182,0.242,0.505,0.06,0.72l0,0c-0.182,0.217-0.503,0.241-0.719,0.06l-4.616-3.901
				C70.733,218.25,70.706,217.929,70.888,217.712z"/>
		</g>
		<g>
			<rect x="70.987" y="207.663" fill="#CED6FF" width="0.383" height="1.021"/>
			<rect x="70.987" y="226.289" fill="#CED6FF" width="0.383" height="1.021"/>
		</g>
		<g>
			<rect x="61.356" y="217.294" fill="#CED6FF" width="1.021" height="0.383"/>
			<rect x="79.981" y="217.294" fill="#CED6FF" width="1.021" height="0.383"/>
		</g>
		<g>
			
				<rect x="64.401" y="210.389" transform="matrix(0.7071 -0.7071 0.7071 0.7071 -130.2098 107.4455)" fill="#CED6FF" width="0.384" height="1.021"/>
			
				<rect x="77.573" y="223.561" transform="matrix(0.7071 -0.7071 0.7071 0.7071 -135.6656 120.6169)" fill="#CED6FF" width="0.384" height="1.021"/>
		</g>
		<g>
			
				<rect x="64.401" y="223.561" transform="matrix(-0.7071 -0.7071 0.7071 -0.7071 -48.1747 428.1879)" fill="#CED6FF" width="0.384" height="1.021"/>
			
				<rect x="77.573" y="210.39" transform="matrix(-0.7084 -0.7058 0.7058 -0.7084 -16.009 415.1865)" fill="#CED6FF" width="0.383" height="1.022"/>
		</g>
	</g>
	<g>
		<path fill="#6DB8FF" d="M87.883,176.936H56.606c-2.435,0-4.406-1.972-4.406-4.406v-33.038c0-2.432,1.971-4.405,4.406-4.405h31.277
			c2.432,0,4.403,1.973,4.403,4.405v33.038C92.286,174.964,90.314,176.936,87.883,176.936z"/>
		<g>
			<polyline fill="#F7D3A9" points="50.273,172.642 53.577,170.327 55.063,164.876 53.412,164.546 52.421,166.528 53.412,157.113 
				51.759,157.443 50.109,166.528 48.125,170.825 49.942,171.98 			"/>
			<polygon fill="#F7D3A9" points="69.82,182.443 70.26,178.477 75.107,173.633 76.208,175.174 74.445,177.155 83.698,174.955 
				83.698,176.936 75.107,180.24 73.345,183.324 			"/>
			<g>
				<g>
					<polygon fill="#544DB8" points="9.51,280.457 27.528,368.598 41.162,367.137 31.912,363.729 35.319,362.755 30.45,280.457 
											"/>
					<path fill="#544DB8" d="M38.242,278.998c0,0,22.887,21.427,19.477,47.234c-3.896,20.452-12.173,28.244-12.173,28.244
						l-2.435-0.485l3.774,9.982l-10.958-11.688c0,0,13.515-18.626,5.113-37.983c-8.399-19.357-26.66-26.298-26.66-26.298
						s15.705-14.241,16.8-13.878C32.275,274.493,38.242,278.998,38.242,278.998z"/>
					<g>
						<path fill="#FF8B40" d="M47.98,169.306c0,0-37.618,45.655-42.001,54.786c0,0-1.827,3.286-1.827,12.783
							c0,9.494,3.287,44.558,3.287,44.558l38.351,2.19c0,0-12.42-42.732-12.783-43.828c-0.366-1.096-6.574-7.67-12.418-9.131
							l32.139-58.07L47.98,169.306z"/>
						<g>
							<path fill="#F7D3A9" d="M24.16,226.255c0,0,1.598,4.74,2.48,7.607c0,0-7.828-0.166-10.583-3.804l2.921-7L24.16,226.255z"/>
							<g>
								<path fill="#F7D3A9" d="M30.112,211.439c0,0,2.315,13.482,0,16.547c-2.314,3.064-10.251-2.146-13.56-7.048
									c-3.307-4.903-3.968-15.935,1.654-16.853C23.829,203.165,28.79,206.535,30.112,211.439z"/>
							</g>
						</g>
						<path fill="#FF8B40" d="M26.553,236.398c0,0,30.16-18.972,32.592-22.865c2.432-3.891,9.243-32.835,9.243-32.835l5.838,1.458
							c0,0-3.406,32.349-4.379,35.755c-0.973,3.405-30.647,35.025-37.458,35.025C25.581,252.937,23.147,244.179,26.553,236.398z"/>
					</g>
				</g>
				<path fill="#544DB8" d="M13.876,204.688c0,0,3.964-5.507,11.013-4.185c7.048,1.321,8.81-0.22,8.81-0.22s-1.541,7.707-6.388,9.47
					c-4.845,1.763-6.167,1.322-6.167,1.322s2.644,2.644,3.305,4.625s-2.203-2.422-3.305-0.881c-1.1,1.541,0,4.847,2.203,4.625
					c2.202-0.219,0.881,1.541,0,3.304c-0.881,1.762-2.203,3.965-3.523,3.303c-1.322-0.659-5.947-3.303-7.71-8.81
					C10.353,211.735,9.912,206.451,13.876,204.688z"/>
			</g>
		</g>
	</g>
	<path fill="#E3EAFF" d="M255.275,221.208h-85.898c-1.827,0-3.306-1.479-3.306-3.304V68.57c0-1.825,1.479-3.303,3.306-3.303h85.898
		c1.825,0,3.304,1.479,3.304,3.303v149.334C258.579,219.728,257.101,221.208,255.275,221.208z"/>
	<path fill="#6DB8FF" d="M239.197,91.037h-54.625c-1.458,0-2.641-1.184-2.641-2.644v-7.929c0-1.46,1.183-2.643,2.641-2.643h54.625
		c1.459,0,2.644,1.183,2.644,2.643v7.929C241.841,89.853,240.656,91.037,239.197,91.037z"/>
	<path fill="#6DB8FF" d="M201.976,164.489h-11.896c-2.798,0-5.066-2.267-5.066-5.063l0,0c0-2.797,2.268-5.064,5.066-5.064h11.896
		c2.796,0,5.063,2.268,5.063,5.064l0,0C207.039,162.223,204.771,164.489,201.976,164.489z"/>
	<path fill="#9570EE" d="M236.336,164.489h-11.899c-2.796,0-5.063-2.267-5.063-5.063l0,0c0-2.797,2.268-5.064,5.063-5.064h11.899
		c2.795,0,5.063,2.268,5.063,5.064l0,0C241.4,162.223,239.132,164.489,236.336,164.489z"/>
	<rect x="180.609" y="104.251" fill="#F9FBFC" width="64.313" height="10.132"/>
	<rect x="180.609" y="121.432" fill="#F9FBFC" width="64.313" height="10.132"/>
	<rect x="194.485" y="137.951" fill="#CDD4FF" width="37.002" height="2.313"/>
	<path fill="#9570EE" d="M449.211,192.353H333.576c-7.117,0-12.885-5.768-12.885-12.885l0,0c0-7.115,5.768-12.884,12.885-12.884
		h115.635c7.114,0,12.885,5.769,12.885,12.884l0,0C462.096,186.585,456.325,192.353,449.211,192.353z"/>
	<g>
		<path fill="#E3EAFF" d="M349.105,83.106H277.08c-5.838,0-10.572-4.732-10.572-10.571l0,0c0-5.84,4.734-10.574,10.572-10.574
			h72.025c5.838,0,10.569,4.733,10.569,10.574l0,0C359.675,78.375,354.943,83.106,349.105,83.106z"/>
		<circle fill="#FFC240" cx="290.956" cy="72.536" r="3.304"/>
		<circle fill="#90C240" cx="313.643" cy="72.536" r="3.305"/>
		<circle fill="#EB4F24" cx="334.567" cy="72.536" r="3.304"/>
	</g>
	<g>
		<circle fill="#FFFFFF" cx="71.784" cy="158.585" r="8.048"/>
		<g>
			<path fill="#9570EE" d="M80.126,148.867h-1.417l-2.039-2.87c-0.159-0.227-0.42-0.362-0.7-0.362h-8.13
				c-0.279,0-0.538,0.136-0.7,0.362l-2.036,2.87h-1.419c-2.206,0-4.01,1.805-4.01,4.01v11.667c0,2.206,1.805,4.01,4.01,4.01h16.44
				c2.205,0,4.01-1.805,4.01-4.01v-11.667C84.136,150.672,82.331,148.867,80.126,148.867z M71.906,164.521
				c-3.264,0-5.912-2.646-5.912-5.911c0-3.265,2.648-5.911,5.912-5.911c3.266,0,5.913,2.646,5.913,5.911
				C77.818,161.875,75.172,164.521,71.906,164.521z"/>
			<circle fill="#6DB8FF" cx="71.906" cy="158.611" r="3.908"/>
		</g>
	</g>
	<g>
		<path fill="#E3EAFF" d="M359.565,151.314h-60.462c-2.878,0-5.21-2.334-5.21-5.213v-36.137c0-2.879,2.332-5.211,5.21-5.211h60.462
			c2.878,0,5.213,2.333,5.213,5.211v36.137C364.778,148.98,362.443,151.314,359.565,151.314z"/>
		<path fill="#FD4940" d="M329.404,127.674h-0.14c-0.315,0-0.627-0.081-0.903-0.234l-27.323-15.18
			c-0.898-0.499-1.225-1.633-0.725-2.533c0.5-0.899,1.633-1.224,2.534-0.724l26.487,14.715l26.486-14.715
			c0.901-0.5,2.034-0.177,2.534,0.724c0.501,0.899,0.177,2.034-0.725,2.533l-27.323,15.18
			C330.031,127.593,329.721,127.674,329.404,127.674z"/>
	</g>
	<path fill="#544DB8" d="M464.077,146.541h-78.632c-2.555,0-4.625-2.071-4.625-4.625v-104.4c0-2.556,2.07-4.627,4.625-4.627h78.632
		c2.554,0,4.625,2.071,4.625,4.627v104.4C468.702,144.47,466.631,146.541,464.077,146.541z"/>
	<g>
		<path fill="#00CCFF" d="M400.456,48.124h-5.857c-0.312,0-0.563-0.507-0.563-1.133l0,0c0-0.625,0.251-1.131,0.563-1.131h5.857
			c0.312,0,0.563,0.506,0.563,1.131l0,0C401.019,47.617,400.768,48.124,400.456,48.124z"/>
		<path fill="#00CCFF" d="M436.706,48.124h-33.494c-0.312,0-0.565-0.507-0.565-1.133l0,0c0-0.625,0.254-1.131,0.565-1.131h33.494
			c0.312,0,0.563,0.506,0.563,1.131l0,0C437.27,47.617,437.018,48.124,436.706,48.124z"/>
		<path fill="#FF56A9" d="M413.896,52.803h-10.685c-0.312,0-0.565-0.508-0.565-1.132l0,0c0-0.625,0.254-1.133,0.565-1.133h10.685
			c0.311,0,0.563,0.508,0.563,1.133l0,0C414.459,52.295,414.207,52.803,413.896,52.803z"/>
		<path fill="#E3EAFF" d="M431.469,52.803h-15.396c-0.312,0-0.565-0.508-0.565-1.132l0,0c0-0.625,0.254-1.133,0.565-1.133h15.396
			c0.312,0,0.565,0.508,0.565,1.133l0,0C432.034,52.295,431.78,52.803,431.469,52.803z"/>
		<path fill="#E3EAFF" d="M436.706,75.587h-33.494c-0.312,0-0.565-0.507-0.565-1.131l0,0c0-0.626,0.254-1.133,0.565-1.133h33.494
			c0.312,0,0.563,0.507,0.563,1.133l0,0C437.27,75.081,437.018,75.587,436.706,75.587z"/>
		<path fill="#00CCFF" d="M400.456,80.268h-5.857c-0.312,0-0.563-0.507-0.563-1.133l0,0c0-0.625,0.251-1.131,0.563-1.131h5.857
			c0.312,0,0.563,0.507,0.563,1.131l0,0C401.019,79.761,400.768,80.268,400.456,80.268z"/>
		<path fill="#E3EAFF" d="M413.896,80.268h-10.685c-0.312,0-0.565-0.507-0.565-1.133l0,0c0-0.625,0.254-1.131,0.565-1.131h10.685
			c0.311,0,0.563,0.507,0.563,1.131l0,0C414.459,79.761,414.207,80.268,413.896,80.268z"/>
		<path fill="#FF56A9" d="M431.469,80.268h-15.396c-0.312,0-0.565-0.507-0.565-1.133l0,0c0-0.625,0.254-1.131,0.565-1.131h15.396
			c0.312,0,0.565,0.507,0.565,1.131l0,0C432.034,79.761,431.78,80.268,431.469,80.268z"/>
		<path fill="#FF56A9" d="M445.011,57.482h-41.799c-0.312,0-0.565-0.506-0.565-1.131l0,0c0-0.626,0.254-1.133,0.565-1.133h41.799
			c0.313,0,0.565,0.506,0.565,1.133l0,0C445.576,56.976,445.324,57.482,445.011,57.482z"/>
		<path fill="#00CCFF" d="M436.251,62.162h-9.731c-0.328,0-0.597-0.268-0.597-0.596v-1.071c0-0.33,0.269-0.597,0.597-0.597h9.731
			c0.331,0,0.598,0.267,0.598,0.597v1.071C436.849,61.895,436.582,62.162,436.251,62.162z"/>
		<path fill="#E3EAFF" d="M417.098,62.162h-13.886c-0.312,0-0.565-0.506-0.565-1.132l0,0c0-0.625,0.254-1.132,0.565-1.132h13.886
			c0.312,0,0.563,0.507,0.563,1.132l0,0C417.66,61.656,417.409,62.162,417.098,62.162z"/>
		<path fill="#00CCFF" d="M424.486,62.162h-5.507c-0.312,0-0.563-0.506-0.563-1.132l0,0c0-0.625,0.251-1.132,0.563-1.132h5.507
			c0.311,0,0.564,0.507,0.564,1.132l0,0C425.051,61.656,424.797,62.162,424.486,62.162z"/>
		<path fill="#E3EAFF" d="M400.456,66.686h-5.857c-0.312,0-0.563-0.507-0.563-1.131l0,0c0-0.626,0.251-1.133,0.563-1.133h5.857
			c0.312,0,0.563,0.507,0.563,1.133l0,0C401.019,66.179,400.768,66.686,400.456,66.686z"/>
		<path fill="#E3EAFF" d="M445.011,66.686h-41.799c-0.312,0-0.565-0.507-0.565-1.131l0,0c0-0.626,0.254-1.133,0.565-1.133h41.799
			c0.313,0,0.565,0.507,0.565,1.133l0,0C445.576,66.179,445.324,66.686,445.011,66.686z"/>
		<path fill="#E3EAFF" d="M400.456,84.602h-5.857c-0.312,0-0.563-0.507-0.563-1.133l0,0c0-0.625,0.251-1.131,0.563-1.131h5.857
			c0.312,0,0.563,0.507,0.563,1.131l0,0C401.019,84.095,400.768,84.602,400.456,84.602z"/>
		<path fill="#E3EAFF" d="M440.336,84.602h-13.712c-0.388,0-0.701-0.314-0.701-0.702v-0.861c0-0.387,0.313-0.701,0.701-0.701h13.712
			c0.389,0,0.702,0.313,0.702,0.701v0.861C441.038,84.288,440.725,84.602,440.336,84.602z"/>
		<path fill="#E3EAFF" d="M417.098,84.602h-13.886c-0.312,0-0.565-0.507-0.565-1.133l0,0c0-0.625,0.254-1.131,0.565-1.131h13.886
			c0.312,0,0.563,0.507,0.563,1.131l0,0C417.66,84.095,417.409,84.602,417.098,84.602z"/>
		<path fill="#E3EAFF" d="M424.486,84.602h-5.507c-0.312,0-0.563-0.507-0.563-1.133l0,0c0-0.625,0.251-1.131,0.563-1.131h5.507
			c0.311,0,0.564,0.507,0.564,1.131l0,0C425.051,84.095,424.797,84.602,424.486,84.602z"/>
		<path fill="#FFC359" d="M400.456,89.125h-5.857c-0.312,0-0.563-0.506-0.563-1.131l0,0c0-0.626,0.251-1.132,0.563-1.132h5.857
			c0.312,0,0.563,0.506,0.563,1.132l0,0C401.019,88.618,400.768,89.125,400.456,89.125z"/>
		<path fill="#00CCFF" d="M410.448,89.125h-7.236c-0.312,0-0.565-0.506-0.565-1.131l0,0c0-0.626,0.254-1.132,0.565-1.132h7.236
			c0.312,0,0.565,0.506,0.565,1.132l0,0C411.014,88.618,410.76,89.125,410.448,89.125z"/>
		<path fill="#00CCFF" d="M394.599,71.366c-0.312,0-0.563-0.507-0.563-1.132l0,0c0-0.626,0.251-1.132,0.563-1.132h5.857
			c0.312,0,0.563,0.506,0.563,1.132l0,0c0,0.625-0.251,1.132-0.563,1.132"/>
		<path fill="#E3EAFF" d="M442.255,71.366h-15.586c-0.413,0-0.746-0.334-0.746-0.746v-0.772c0-0.412,0.333-0.746,0.746-0.746h15.586
			c0.411,0,0.747,0.333,0.747,0.746v0.772C443.002,71.032,442.666,71.366,442.255,71.366z"/>
		<path fill="#FFC359" d="M417.098,71.366h-13.886c-0.312,0-0.565-0.507-0.565-1.132l0,0c0-0.626,0.254-1.132,0.565-1.132h13.886
			c0.312,0,0.563,0.506,0.563,1.132l0,0C417.66,70.859,417.409,71.366,417.098,71.366z"/>
		<path fill="#FFC359" d="M424.486,71.366h-5.507c-0.312,0-0.563-0.507-0.563-1.132l0,0c0-0.626,0.251-1.132,0.563-1.132h5.507
			c0.311,0,0.564,0.506,0.564,1.132l0,0C425.051,70.859,424.797,71.366,424.486,71.366z"/>
		<path fill="#E3EAFF" d="M436.706,93.937h-33.494c-0.312,0-0.565-0.508-0.565-1.132l0,0c0-0.625,0.254-1.132,0.565-1.132h33.494
			c0.312,0,0.563,0.507,0.563,1.132l0,0C437.27,93.429,437.018,93.937,436.706,93.937z"/>
		<path fill="#E3EAFF" d="M413.896,98.616h-10.685c-0.312,0-0.565-0.507-0.565-1.132l0,0c0-0.626,0.254-1.133,0.565-1.133h10.685
			c0.311,0,0.563,0.507,0.563,1.133l0,0C414.459,98.109,414.207,98.616,413.896,98.616z"/>
		<path fill="#E3EAFF" d="M431.469,98.616h-15.396c-0.312,0-0.565-0.507-0.565-1.132l0,0c0-0.626,0.254-1.133,0.565-1.133h15.396
			c0.312,0,0.565,0.507,0.565,1.133l0,0C432.034,98.109,431.78,98.616,431.469,98.616z"/>
		<path fill="#E3EAFF" d="M436.706,121.401h-33.494c-0.312,0-0.565-0.507-0.565-1.133l0,0c0-0.625,0.254-1.131,0.565-1.131h33.494
			c0.312,0,0.563,0.506,0.563,1.131l0,0C437.27,120.894,437.018,121.401,436.706,121.401z"/>
		<path fill="#FF56A9" d="M400.456,126.081h-5.857c-0.312,0-0.563-0.508-0.563-1.133l0,0c0-0.625,0.251-1.131,0.563-1.131h5.857
			c0.312,0,0.563,0.506,0.563,1.131l0,0C401.019,125.573,400.768,126.081,400.456,126.081z"/>
		<path fill="#00CCFF" d="M413.896,126.081h-10.685c-0.312,0-0.565-0.508-0.565-1.133l0,0c0-0.625,0.254-1.131,0.565-1.131h10.685
			c0.311,0,0.563,0.506,0.563,1.131l0,0C414.459,125.573,414.207,126.081,413.896,126.081z"/>
		<path fill="#E3EAFF" d="M431.469,126.081h-15.396c-0.312,0-0.565-0.508-0.565-1.133l0,0c0-0.625,0.254-1.131,0.565-1.131h15.396
			c0.312,0,0.565,0.506,0.565,1.131l0,0C432.034,125.573,431.78,126.081,431.469,126.081z"/>
		<path fill="#FF56A9" d="M400.456,103.295h-5.857c-0.312,0-0.563-0.507-0.563-1.133l0,0c0-0.625,0.251-1.131,0.563-1.131h5.857
			c0.312,0,0.563,0.507,0.563,1.131l0,0C401.019,102.789,400.768,103.295,400.456,103.295z"/>
		<path fill="#FF56A9" d="M433.111,103.295h-29.782c-0.376,0-0.683-0.305-0.683-0.681v-0.902c0-0.376,0.307-0.681,0.683-0.681
			h29.782c0.376,0,0.683,0.305,0.683,0.681v0.902C433.794,102.991,433.487,103.295,433.111,103.295z"/>
		<path fill="#E3EAFF" d="M400.456,107.976h-5.857c-0.312,0-0.563-0.507-0.563-1.133l0,0c0-0.625,0.251-1.131,0.563-1.131h5.857
			c0.312,0,0.563,0.507,0.563,1.131l0,0C401.019,107.469,400.768,107.976,400.456,107.976z"/>
		<path fill="#E3EAFF" d="M417.098,107.976h-13.886c-0.312,0-0.565-0.507-0.565-1.133l0,0c0-0.625,0.254-1.131,0.565-1.131h13.886
			c0.312,0,0.563,0.507,0.563,1.131l0,0C417.66,107.469,417.409,107.976,417.098,107.976z"/>
		<path fill="#E3EAFF" d="M424.486,107.976h-5.507c-0.312,0-0.563-0.507-0.563-1.133l0,0c0-0.625,0.251-1.131,0.563-1.131h5.507
			c0.311,0,0.564,0.507,0.564,1.131l0,0C425.051,107.469,424.797,107.976,424.486,107.976z"/>
		<path fill="#E3EAFF" d="M400.456,112.499h-5.857c-0.312,0-0.563-0.506-0.563-1.131l0,0c0-0.626,0.251-1.132,0.563-1.132h5.857
			c0.312,0,0.563,0.506,0.563,1.132l0,0C401.019,111.992,400.768,112.499,400.456,112.499z"/>
		<path fill="#E3EAFF" d="M441.103,112.499h-37.691c-0.421,0-0.765-0.341-0.765-0.763v-0.737c0-0.422,0.344-0.764,0.765-0.764
			h37.691c0.421,0,0.765,0.342,0.765,0.764v0.737C441.867,112.158,441.523,112.499,441.103,112.499z"/>
		<path fill="#E3EAFF" d="M400.456,130.415h-5.857c-0.312,0-0.563-0.508-0.563-1.132l0,0c0-0.625,0.251-1.133,0.563-1.133h5.857
			c0.312,0,0.563,0.508,0.563,1.133l0,0C401.019,129.907,400.768,130.415,400.456,130.415z"/>
		<path fill="#E3EAFF" d="M444.969,130.415h-18.481c-0.311,0-0.564-0.508-0.564-1.132l0,0c0-0.625,0.254-1.133,0.564-1.133h18.481
			c0.311,0,0.563,0.508,0.563,1.133l0,0C445.531,129.907,445.279,130.415,444.969,130.415z"/>
		<path fill="#E3EAFF" d="M417.098,130.415h-13.886c-0.312,0-0.565-0.508-0.565-1.132l0,0c0-0.625,0.254-1.133,0.565-1.133h13.886
			c0.312,0,0.563,0.508,0.563,1.133l0,0C417.66,129.907,417.409,130.415,417.098,130.415z"/>
		<path fill="#E3EAFF" d="M424.486,130.415h-5.507c-0.312,0-0.563-0.508-0.563-1.132l0,0c0-0.625,0.251-1.133,0.563-1.133h5.507
			c0.311,0,0.564,0.508,0.564,1.133l0,0C425.051,129.907,424.797,130.415,424.486,130.415z"/>
		<path fill="#FFC359" d="M427.937,134.938H403.27c-0.344,0-0.623-0.277-0.623-0.62v-1.023c0-0.343,0.279-0.621,0.623-0.621h24.667
			c0.341,0,0.62,0.278,0.62,0.621v1.023C428.557,134.661,428.277,134.938,427.937,134.938z"/>
		<path fill="#FF56A9" d="M443.238,117.179h-16.549c-0.424,0-0.767-0.343-0.767-0.767v-0.731c0-0.423,0.343-0.767,0.767-0.767
			h16.549c0.424,0,0.767,0.344,0.767,0.767v0.731C444.005,116.835,443.662,117.179,443.238,117.179z"/>
		<path fill="#FFC359" d="M417.098,117.179h-13.886c-0.312,0-0.565-0.506-0.565-1.131l0,0c0-0.626,0.254-1.133,0.565-1.133h13.886
			c0.312,0,0.563,0.507,0.563,1.133l0,0C417.66,116.672,417.409,117.179,417.098,117.179z"/>
		<path fill="#FFC359" d="M424.486,117.179h-5.507c-0.312,0-0.563-0.506-0.563-1.131l0,0c0-0.626,0.251-1.133,0.563-1.133h5.507
			c0.311,0,0.564,0.507,0.564,1.133l0,0C425.051,116.672,424.797,117.179,424.486,117.179z"/>
	</g>
	<g>
		<circle fill="#FF4DD1" cx="461.617" cy="35.236" r="18.502"/>
		<g>
			<g>
				<path fill="#F9FBFC" d="M460.275,33.501l-7.348,2.692l7.348,2.67v2.758l-10.505-3.994v-2.869l10.505-3.993V33.501z"/>
			</g>
			<g>
				<path fill="#F9FBFC" d="M462.676,30.765l10.505,3.993v2.869l-10.505,3.994v-2.758l7.349-2.67l-7.349-2.692V30.765z"/>
			</g>
		</g>
	</g>
	<g>
		<circle fill="#FFC240" cx="339.237" cy="347.2" r="20.069"/>
		<g>
			<path fill="#FFFFFF" d="M349.832,346.052c0,1.247-0.199,2.385-0.595,3.42c-0.398,1.033-0.961,1.845-1.688,2.433
				c-0.728,0.59-1.571,0.884-2.532,0.884c-0.64,0-1.205-0.154-1.7-0.461c-0.493-0.309-0.847-0.712-1.063-1.215h-0.21
				c-0.933,1.118-2.123,1.676-3.566,1.676c-1.531,0-2.738-0.461-3.622-1.382c-0.882-0.924-1.325-2.184-1.325-3.784
				c0-1.827,0.58-3.296,1.74-4.413c1.16-1.115,2.674-1.673,4.543-1.673c0.745,0,1.563,0.069,2.46,0.214
				c0.894,0.142,1.633,0.313,2.213,0.513l-0.299,6.346c0,1.202,0.329,1.805,0.986,1.805c0.553,0,0.993-0.406,1.324-1.215
				c0.328-0.81,0.493-1.867,0.493-3.174c0-1.392-0.292-2.622-0.872-3.692c-0.577-1.067-1.394-1.882-2.444-2.444
				c-1.053-0.563-2.253-0.844-3.602-0.844c-1.748,0-3.267,0.358-4.556,1.075c-1.29,0.72-2.278,1.755-2.965,3.109
				c-0.689,1.354-1.033,2.917-1.033,4.692c0,2.388,0.64,4.22,1.914,5.494c1.277,1.277,3.127,1.917,5.549,1.917
				c0.916,0,1.925-0.103,3.024-0.307c1.098-0.204,2.181-0.5,3.244-0.889v2.492c-1.853,0.786-3.906,1.18-6.164,1.18
				c-3.288,0-5.853-0.863-7.689-2.594c-1.84-1.73-2.758-4.138-2.758-7.217c0-2.136,0.47-4.077,1.408-5.82
				c0.938-1.745,2.275-3.111,4.011-4.103c1.732-0.99,3.729-1.486,5.989-1.486c1.902,0,3.603,0.392,5.099,1.168
				c1.498,0.779,2.653,1.887,3.465,3.323C349.427,342.517,349.832,344.175,349.832,346.052z M336.544,347.675
				c0,1.824,0.744,2.738,2.233,2.738c0.776,0,1.371-0.276,1.777-0.827c0.405-0.547,0.652-1.44,0.739-2.678l0.169-2.868
				c-0.44-0.095-0.938-0.145-1.494-0.145c-1.08,0-1.921,0.339-2.523,1.014C336.845,345.583,336.544,346.505,336.544,347.675z"/>
		</g>
	</g>
	<g>
		<path fill="#9570EE" d="M238.383,0H112.478c-10.226,0-18.516,8.29-18.516,18.516s8.29,18.515,18.516,18.515h9.258l8.95,8.949
			l8.949-8.949h98.749c10.227,0,18.516-8.288,18.516-18.515S248.609,0,238.383,0z"/>
		<path fill="#FFFFFF" d="M202.356,24.418h-82.849c-1.146,0-2.071-0.927-2.071-2.071l0,0c0-1.144,0.926-2.071,2.071-2.071h82.849
			c1.143,0,2.071,0.927,2.071,2.071l0,0C204.428,23.491,203.499,24.418,202.356,24.418z"/>
		<path fill="#FFFFFF" d="M176.465,13.027h-56.957c-1.146,0-2.071-0.927-2.071-2.071l0,0c0-1.144,0.926-2.071,2.071-2.071h56.957
			c1.145,0,2.071,0.927,2.071,2.071l0,0C178.536,12.1,177.61,13.027,176.465,13.027z"/>
	</g>
	<g>
		<path fill="#F7D3A9" d="M410.471,234.62c0,0-1.541,4.571-2.393,7.334c0,0,7.551-0.159,10.207-3.667l-2.815-6.751L410.471,234.62z"
			/>
		<g>
			<polygon fill="#F79A74" points="409.338,360.674 409.982,363.55 414.15,363.784 413.269,360.264 			"/>
			<path fill="#544DB8" d="M409.982,363.55c0,0-6.984,3.639-6.928,3.873c0.061,0.236,11.8-0.998,11.8-0.998l-0.704-2.642
				L409.982,363.55z"/>
		</g>
		<g>
			<polygon fill="#F79A74" points="444.561,354.879 446.196,357.332 450.169,356.049 448.08,353.082 			"/>
			<path fill="#544DB8" d="M446.196,357.332c0,0-5.208,5.909-5.068,6.106c0.139,0.199,10.649-5.179,10.649-5.179l-1.608-2.21
				L446.196,357.332z"/>
		</g>
		<path fill="#FFC240" d="M401.589,284.657c0,0-11.974,39.096,7.042,76.779h5.637c0,0-11.27-42.615,2.817-77.131L401.589,284.657z"
			/>
		<path fill="#FFC240" d="M411.984,286.041c0,0,1.857,40.844,32.432,69.949l5.308-1.895c0,0-24.934-36.353-23.261-73.594
			L411.984,286.041z"/>
		<g>
			<path fill="#F79A74" d="M406.5,194.008l0.016-2.409c0-0.107-0.013-0.212-0.04-0.314l-0.458-1.725l-1.374,0.351l-1.401-1.294
				c-0.593-0.546-1.544-0.366-1.885,0.36c-0.434,0.916-0.926,2.099-1.08,3c-0.063,0.358,0.057,0.72,0.301,0.988l2.144,2.345
				c0.306,0.336,0.779,0.468,1.217,0.339l1.708-0.506C406.152,194.994,406.498,194.534,406.5,194.008z"/>
			<path fill="#FF4F72" d="M427.157,246.875c0,0-15.618-16.739-16.646-23.005c-1.03-6.263-3.313-29.568-3.313-29.568l-4.816,0.931
				c0,0-1.653,33.333-0.192,37.172c1.464,3.838,10.854,23.402,16.971,25.207C425.275,259.419,429.572,253.387,427.157,246.875z"/>
			<path fill="#F79A74" d="M405.462,219.265c0,0-3.522,11.721-1.292,14.676c2.233,2.954,10.448,0.278,13.637-4.449
				c3.189-4.728,3.829-15.367-1.596-16.253C410.792,212.353,406.739,214.539,405.462,219.265z"/>
			<path fill="#FF4F72" d="M426.595,287.828c0,0,3.169-33.811,3.169-42.969c0-0.418-0.008-0.812-0.013-1.205
				c-2.357-5.954-8.21-5.838-10.553-5.369c-2.347,0.471-11.506,3.405-11.446,3.756l-0.024-0.029
				c-3.154,2.29-5.566,5.006-5.788,5.666c0,0-8.451,17.609-1.055,38.742L426.595,287.828z"/>
			<path fill="#F79A74" d="M381.833,195.736l-0.411-2.375c-0.017-0.104-0.049-0.206-0.094-0.301l-0.755-1.618l-1.289,0.587
				l-1.608-1.027c-0.677-0.434-1.581-0.09-1.792,0.687c-0.265,0.979-0.543,2.229-0.535,3.142c0.002,0.363,0.182,0.699,0.47,0.919
				l2.52,1.932c0.363,0.278,0.852,0.323,1.26,0.122l1.593-0.799C381.661,196.769,381.923,196.253,381.833,195.736z"/>
			<path fill="#FF4F72" d="M411.449,244.154c0,0-18.314-13.733-20.426-19.723c-2.113-5.987-8.453-28.528-8.453-28.528l-4.578,1.763
				c0,0,4.227,33.105,6.338,36.628c2.113,3.522,14.794,21.133,21.132,21.837C411.803,256.835,414.972,250.141,411.449,244.154z"/>
			<path fill="#544DB8" d="M418.494,213.162c0,0-9.393-3.99-13.854,4.227c-2.348,5.166,5.166,0.234,6.574,1.877
				c1.409,1.646-1.877,4.932-0.938,6.106c0.938,1.173,2.582-2.113,3.522-0.236c0.938,1.88-1.408,2.113-3.054,4.228
				c-1.644,2.113,1.408,5.165-0.938,7.045c-2.348,1.877-8.922,3.285-4.932,13.383c3.992,10.097-6.574,12.678-2.113,26.531
				c4.463,13.854,34.751,21.604,40.387,5.166c5.634-16.436-13.148-20.428-11.976-27.707c1.175-7.279,5.401-9.156-0.234-16.435
				c-5.636-7.279-9.158-11.506-7.513-16.201C425.068,216.448,420.607,213.162,418.494,213.162z"/>
		</g>
	</g>
	<path fill="#FEC800" d="M444.107,156.391c-11.15,0-20.191,9.039-20.191,20.191c0,11.15,9.041,20.188,20.191,20.188
		c11.149,0,20.191-9.038,20.191-20.188C464.299,165.43,455.257,156.391,444.107,156.391z M433.898,175.012
		c0-1.364,1.105-2.467,2.47-2.467c1.361,0,2.467,1.103,2.467,2.467c0,1.362-1.105,2.467-2.467,2.467
		C435.004,177.479,433.898,176.374,433.898,175.012z M444.107,187.601c-3.251,0-5.93-2.418-6.36-5.549h12.718
		C450.037,185.183,447.358,187.601,444.107,187.601z M451.847,177.479c-1.364,0-2.467-1.105-2.467-2.467
		c0-1.364,1.103-2.467,2.467-2.467s2.467,1.103,2.467,2.467C454.313,176.374,453.211,177.479,451.847,177.479z"/>
	<polygon fill="#F9FBFC" points="144.197,320.182 143.015,317.818 175.021,301.816 215.398,302.475 259.238,285.963 
		292.726,285.963 328.479,274.044 328.77,274.077 357.442,277.335 373.604,268.931 374.823,271.276 357.947,280.051 
		357.544,280.006 328.762,276.735 292.939,288.605 259.482,288.605 215.861,305.129 215.61,305.125 175.625,304.469 	"/>
	<g>
		<path fill="#544DB8" d="M261.663,256.773c0,0,31.718,51.373,27.752,87.11L311,344.33l-9.25-5.36l2.641-0.447
			c0,0-7.928-55.392-15.416-75.048c-7.844-20.587-10.132-12.954-10.132-12.954L261.663,256.773z"/>
		<path fill="#544DB8" d="M250.21,253.584c0,0,1.763,35.683-0.882,49.337c-2.643,13.656-10.572,40.526-10.572,40.526l20.263,0.44
			l-5.322-3.756l-3.378-1.969c0,0,14.429-38.765,15.748-57.269c1.321-18.501,3.524-29.073,3.524-29.073L250.21,253.584z"/>
		<g>
			<polyline fill="#F7D3A9" points="291.673,147.972 294.977,145.66 296.463,140.208 294.813,139.878 293.821,141.86 
				294.813,132.444 293.159,132.775 291.509,141.86 289.524,146.155 291.342,147.312 			"/>
			<polygon fill="#F7D3A9" points="311.22,157.773 311.66,153.809 316.507,148.963 317.607,150.505 315.845,152.488 
				325.098,150.285 325.098,152.268 316.507,155.571 314.744,158.654 			"/>
			<g>
				<g>
					<g>
						<path fill="#6DB8FF" d="M289.38,144.639c0,0-37.619,45.652-42.001,54.783c0,0-1.826,3.286-1.826,12.783
							s3.288,44.558,3.288,44.558l38.349,2.19c0,0-12.42-42.73-12.783-43.825c-0.365-1.096-6.574-7.67-12.419-9.131l32.14-58.071
							L289.38,144.639z"/>
						<g>
							<path fill="#F7D3A9" d="M265.56,201.585c0,0,1.598,4.743,2.479,7.608c0,0-7.827-0.165-10.583-3.804l2.923-7L265.56,201.585z"
								/>
							<g>
								<path fill="#F7D3A9" d="M271.512,186.769c0,0,2.314,13.485,0,16.547c-2.315,3.064-10.252-2.144-13.56-7.047
									c-3.307-4.902-3.969-15.935,1.655-16.854C265.229,178.497,270.189,181.868,271.512,186.769z"/>
							</g>
						</g>
						<path fill="#6DB8FF" d="M267.951,211.728c0,0,30.162-18.972,32.594-22.863c2.433-3.891,9.243-32.835,9.243-32.835l5.838,1.46
							c0,0-3.405,32.349-4.379,35.754c-0.974,3.406-30.647,35.023-37.458,35.023C266.98,228.267,264.549,219.512,267.951,211.728z"
							/>
					</g>
				</g>
			</g>
		</g>
		<path fill="#544DB8" d="M269.371,183.765c0,0,1.543-5.288-1.761-7.931c-3.306-2.642-9.031-2.201-9.912-1.319
			c0,1.541,3.524,2.422,2.644,3.303c-0.882,0.881-5.507,0-6.609,4.625c-1.101,4.625,0.44,5.506,0.44,5.506s-2.422,2.863,0.44,6.829
			c2.865,3.963,9.336,7.231,10.946,6.808c1.61-0.423,0.729-6.589,0.729-6.589s-3.744-0.44-3.966-2.862
			c-0.219-2.423,1.763-2.645,2.644-1.763c0.881,0.881,1.101,2.862,1.763,2.422c0.659-0.44-0.222-5.065-0.222-5.065
			S268.933,185.746,269.371,183.765z"/>
	</g>
	<g>
		<path fill="#9570EE" d="M287.125,318.711l-22.651,6.211c-6.228,1.71-9.925,8.202-8.217,14.431l4.284,15.621
			c1.707,6.229,8.202,9.928,14.431,8.22l6.791-1.864l6.687,6.609l2.38-9.097l6.791-1.862c6.23-1.707,9.928-8.202,8.22-14.431
			l-4.284-15.621C299.846,320.7,293.354,317,287.125,318.711z"/>
		<g>
			<circle fill="#FFFFFF" cx="269.631" cy="344.996" r="2.598"/>
			<circle fill="#FFFFFF" cx="281.047" cy="341.865" r="2.598"/>
			<circle fill="#FFFFFF" cx="292.461" cy="338.733" r="2.598"/>
		</g>
	</g>
	<circle fill="#FFC240" cx="175.103" cy="302.48" r="4.185"/>
	<circle fill="#FF4F72" cx="328.84" cy="275.61" r="4.186"/>
</g>
</svg>
